<svg viewBox="0 0 620 130" xmlns="http://www.w3.org/2000/svg" fill="none" role="img">
<g><animateTransform attributeName="transform" type="rotate" from="0 62 52" to="360 62 52" dur="14s" repeatCount="indefinite"/>
      <polygon points="62.0,22.0 85.5,33.3 91.2,58.7 75.0,79.0 49.0,79.0 32.8,58.7 38.5,33.3" fill="none" stroke="#4FD1C5" stroke-width="3" stroke-linejoin="round"/>
      <polygon points="62.0,33.0 76.9,40.2 80.5,56.2 70.2,69.1 53.8,69.1 43.5,56.2 47.1,40.2" fill="none" stroke="#2BB5A8" stroke-width="1.5"/>
      <line x1="62" y1="52" x2="62.0" y2="33.0" stroke="#4FD1C5" stroke-width="2"/><line x1="62" y1="52" x2="76.9" y2="40.2" stroke="#4FD1C5" stroke-width="2"/><line x1="62" y1="52" x2="80.5" y2="56.2" stroke="#4FD1C5" stroke-width="2"/><line x1="62" y1="52" x2="70.2" y2="69.1" stroke="#4FD1C5" stroke-width="2"/><line x1="62" y1="52" x2="53.8" y2="69.1" stroke="#4FD1C5" stroke-width="2"/><line x1="62" y1="52" x2="43.5" y2="56.2" stroke="#4FD1C5" stroke-width="2"/><line x1="62" y1="52" x2="47.1" y2="40.2" stroke="#4FD1C5" stroke-width="2"/>
      <circle cx="62" cy="52" r="5" fill="#7BF5E8"/></g>
<text x="62" y="104" text-anchor="middle" font-family="'JetBrains Mono',monospace" font-size="10" letter-spacing="0.5" fill="#86BDB6">Kubernetes</text>
<g><animateTransform attributeName="transform" type="rotate" from="360 186 52" to="0 186 52" dur="9s" repeatCount="indefinite"/>
      <polygon points="216.0,52.0 205.4,60.0 207.2,73.2 194.0,71.4 186.0,82.0 178.0,71.4 164.8,73.2 166.6,60.0 156.0,52.0 166.6,44.0 164.8,30.8 178.0,32.6 186.0,22.0 194.0,32.6 207.2,30.8 205.4,44.0" fill="none" stroke="#4FD1C5" stroke-width="3" stroke-linejoin="round"/>
      <circle cx="186" cy="52" r="9" fill="none" stroke="#7BF5E8" stroke-width="3"/></g>
<text x="186" y="104" text-anchor="middle" font-family="'JetBrains Mono',monospace" font-size="10" letter-spacing="0.5" fill="#86BDB6">Automation</text>
<g><polygon points="299,29 316,29 309,50 292,50" fill="#4FD1C5"><animate attributeName="opacity" values="0.25;1;0.25" dur="2.4s" begin="0s" repeatCount="indefinite"/></polygon><polygon points="299,53 316,53 309,74 292,74" fill="#4FD1C5"><animate attributeName="opacity" values="0.25;1;0.25" dur="2.4s" begin="0.3s" repeatCount="indefinite"/></polygon><polygon points="319,29 336,29 329,50 312,50" fill="#4FD1C5"><animate attributeName="opacity" values="0.25;1;0.25" dur="2.4s" begin="0.6s" repeatCount="indefinite"/></polygon></g>
<text x="310" y="104" text-anchor="middle" font-family="'JetBrains Mono',monospace" font-size="10" letter-spacing="0.5" fill="#86BDB6">Terraform</text>
<g><rect x="413.0" y="31.0" width="18" height="18" rx="4" fill="none" stroke="#4FD1C5" stroke-width="2.5"><animate attributeName="opacity" values="0.3;1;0.3" dur="2.2s" begin="0.0s" repeatCount="indefinite"/><animate attributeName="fill" values="#4FD1C500;#4FD1C566;#4FD1C500" dur="2.2s" begin="0.0s" repeatCount="indefinite"/></rect><rect x="437.0" y="31.0" width="18" height="18" rx="4" fill="none" stroke="#4FD1C5" stroke-width="2.5"><animate attributeName="opacity" values="0.3;1;0.3" dur="2.2s" begin="0.25s" repeatCount="indefinite"/><animate attributeName="fill" values="#4FD1C500;#4FD1C566;#4FD1C500" dur="2.2s" begin="0.25s" repeatCount="indefinite"/></rect><rect x="413.0" y="55.0" width="18" height="18" rx="4" fill="none" stroke="#4FD1C5" stroke-width="2.5"><animate attributeName="opacity" values="0.3;1;0.3" dur="2.2s" begin="0.5s" repeatCount="indefinite"/><animate attributeName="fill" values="#4FD1C500;#4FD1C566;#4FD1C500" dur="2.2s" begin="0.5s" repeatCount="indefinite"/></rect><rect x="437.0" y="55.0" width="18" height="18" rx="4" fill="none" stroke="#4FD1C5" stroke-width="2.5"><animate attributeName="opacity" values="0.3;1;0.3" dur="2.2s" begin="0.75s" repeatCount="indefinite"/><animate attributeName="fill" values="#4FD1C500;#4FD1C566;#4FD1C500" dur="2.2s" begin="0.75s" repeatCount="indefinite"/></rect></g>
<text x="434" y="104" text-anchor="middle" font-family="'JetBrains Mono',monospace" font-size="10" letter-spacing="0.5" fill="#86BDB6">Containers</text>
<g>
      <circle cx="558" cy="52" r="30" fill="none" stroke="#2BB5A8" stroke-width="2.5"/>
      <path id="ekg5" d="M532 52 L546 52 L552 40 L558 64 L564 52 L584 52" fill="none" stroke="#4FD1C5" stroke-width="2.5" stroke-linecap="round" stroke-linejoin="round"/>
      <circle r="3.5" fill="#7BF5E8"><animateMotion dur="2s" repeatCount="indefinite"><mpath href="#ekg5"/></animateMotion></circle></g>
<text x="558" y="104" text-anchor="middle" font-family="'JetBrains Mono',monospace" font-size="10" letter-spacing="0.5" fill="#86BDB6">Reliability</text>
</svg>