<svg viewBox="0 0 1080 300" xmlns="http://www.w3.org/2000/svg" fill="none" role="img">
<g><animateTransform attributeName="transform" type="rotate" from="0 34 38" to="360 34 38" dur="16s" repeatCount="indefinite"/><polygon points="34.0,25.0 44.2,29.9 46.7,40.9 39.6,49.7 28.4,49.7 21.3,40.9 23.8,29.9" fill="none" stroke="#4FD1C5" stroke-width="2"/><line x1="34" y1="38" x2="34.0" y2="30.0" stroke="#4FD1C5" stroke-width="1.4"/><line x1="34" y1="38" x2="40.3" y2="33.0" stroke="#4FD1C5" stroke-width="1.4"/><line x1="34" y1="38" x2="41.8" y2="39.8" stroke="#4FD1C5" stroke-width="1.4"/><line x1="34" y1="38" x2="37.5" y2="45.2" stroke="#4FD1C5" stroke-width="1.4"/><line x1="34" y1="38" x2="30.5" y2="45.2" stroke="#4FD1C5" stroke-width="1.4"/><line x1="34" y1="38" x2="26.2" y2="39.8" stroke="#4FD1C5" stroke-width="1.4"/><line x1="34" y1="38" x2="27.7" y2="33.0" stroke="#4FD1C5" stroke-width="1.4"/><circle cx="34" cy="38" r="3" fill="#7BF5E8"/></g>
<text x="64" y="44" font-family="'Segoe UI',system-ui,sans-serif" font-size="17" fill="#C7D6D3"><tspan>Running and scaling workloads on </tspan><tspan fill="#4FD1C5" font-weight="700">Kubernetes</tspan></text>
<g><polygon points="28,77 35,77 32,89 25,89" fill="#4FD1C5"><animate attributeName="opacity" values="0.3;1;0.3" dur="2.4s" begin="0s" repeatCount="indefinite"/></polygon><polygon points="28,90 35,90 32,102 25,102" fill="#4FD1C5"><animate attributeName="opacity" values="0.3;1;0.3" dur="2.4s" begin="0.3s" repeatCount="indefinite"/></polygon><polygon points="37,77 44,77 41,89 34,89" fill="#4FD1C5"><animate attributeName="opacity" values="0.3;1;0.3" dur="2.4s" begin="0.6s" repeatCount="indefinite"/></polygon></g>
<text x="64" y="96" font-family="'Segoe UI',system-ui,sans-serif" font-size="17" fill="#C7D6D3"><tspan>Codifying everything as </tspan><tspan fill="#4FD1C5" font-weight="700">Terraform</tspan><tspan>, so infrastructure stays reproducible and reviewable</tspan></text>
<g><path id="inf" d="M 34 142 C 19 131, 19 153, 34 142 C 49 131, 49 153, 34 142 Z" fill="none" stroke="#4FD1C5" stroke-width="2.2" stroke-linecap="round"/><circle r="2.8" fill="#7BF5E8"><animateMotion dur="2.8s" repeatCount="indefinite"><mpath href="#inf"/></animateMotion></circle></g>
<text x="64" y="148" font-family="'Segoe UI',system-ui,sans-serif" font-size="17" fill="#C7D6D3"><tspan>Building fast, dependable </tspan><tspan fill="#4FD1C5" font-weight="700">CI/CD</tspan><tspan> pipelines</tspan></text>
<g><circle cx="34" cy="194" r="14" fill="none" stroke="#4FD1C5" stroke-opacity="0.55" stroke-width="2"/><path d="M21 194 L28 194 L32 186 L36 202 L40 194 L47 194" fill="none" stroke="#4FD1C5" stroke-width="2" stroke-linecap="round" stroke-linejoin="round"><animate attributeName="opacity" values="0.4;1;0.4" dur="1.8s" repeatCount="indefinite"/></path></g>
<text x="64" y="200" font-family="'Segoe UI',system-ui,sans-serif" font-size="17" fill="#C7D6D3"><tspan fill="#4FD1C5" font-weight="700">Observability</tspan><tspan> that surfaces issues before users ever notice</tspan></text>
<g><path d="M34 232 L45 237 L45 247 Q45 255 34 260 Q23 255 23 247 L23 237 Z" fill="none" stroke="#4FD1C5" stroke-width="2"><animate attributeName="stroke-opacity" values="0.55;1;0.55" dur="2.6s" repeatCount="indefinite"/></path><path d="M29 246 L33 251 L40 242" fill="none" stroke="#7BF5E8" stroke-width="2.2" stroke-linecap="round" stroke-linejoin="round"/></g>
<text x="64" y="252" font-family="'Segoe UI',system-ui,sans-serif" font-size="17" fill="#C7D6D3"><tspan>Caring about </tspan><tspan fill="#4FD1C5" font-weight="700">security</tspan><tspan>, cost, and a clean developer experience</tspan></text>
</svg>