<svg viewBox="0 0 1214 346" xmlns="http://www.w3.org/2000/svg" fill="none" role="img">
  <g>
    <rect x="12" y="12" width="584" height="150" rx="16" fill="#0C1B21" stroke="#4FD1C5" stroke-opacity="0.22"/>
    <rect x="12" y="12" width="4" height="150" rx="2" fill="#4FD1C5"><animate attributeName="opacity" values="0.55;1;0.55" dur="2.6s" begin="0.0s" repeatCount="indefinite"/></rect>
    <circle cx="46" cy="46" r="5" fill="#7BF5E8"><animate attributeName="opacity" values="1;0.3;1" dur="1.8s" begin="0.0s" repeatCount="indefinite"/></circle>
    <text x="60" y="51" font-family="'Segoe UI',system-ui,sans-serif" font-size="21" font-weight="800" fill="#4FD1C5">MetaGuardian</text>
    <text x="40" y="84" font-family="'Segoe UI',system-ui,sans-serif" font-size="13.5" fill="#A9C4C0">Shows on-call engineers why something broke, not just that it did.</text>
    <rect x="40" y="104" width="45" height="22" rx="11" fill="none" stroke="#4FD1C5" stroke-opacity="0.5"/><text x="62" y="119" text-anchor="middle" font-family="'JetBrains Mono',monospace" font-size="10.5" fill="#9FE7DF">Java</text><rect x="93" y="104" width="92" height="22" rx="11" fill="none" stroke="#4FD1C5" stroke-opacity="0.5"/><text x="139" y="119" text-anchor="middle" font-family="'JetBrains Mono',monospace" font-size="10.5" fill="#9FE7DF">Spring Boot</text><rect x="192" y="104" width="52" height="22" rx="11" fill="none" stroke="#4FD1C5" stroke-opacity="0.5"/><text x="218" y="119" text-anchor="middle" font-family="'JetBrains Mono',monospace" font-size="10.5" fill="#9FE7DF">React</text>
  </g>
  <g>
    <rect x="618" y="12" width="584" height="150" rx="16" fill="#0C1B21" stroke="#4FD1C5" stroke-opacity="0.22"/>
    <rect x="618" y="12" width="4" height="150" rx="2" fill="#4FD1C5"><animate attributeName="opacity" values="0.55;1;0.55" dur="2.6s" begin="0.4s" repeatCount="indefinite"/></rect>
    <circle cx="652" cy="46" r="5" fill="#7BF5E8"><animate attributeName="opacity" values="1;0.3;1" dur="1.8s" begin="0.4s" repeatCount="indefinite"/></circle>
    <text x="666" y="51" font-family="'Segoe UI',system-ui,sans-serif" font-size="21" font-weight="800" fill="#4FD1C5">KORA-SRE</text>
    <text x="646" y="84" font-family="'Segoe UI',system-ui,sans-serif" font-size="13.5" fill="#A9C4C0">Pulls incident signals into one place and auto-drafts runbooks.</text>
    <rect x="646" y="104" width="52" height="22" rx="11" fill="none" stroke="#4FD1C5" stroke-opacity="0.5"/><text x="672" y="119" text-anchor="middle" font-family="'JetBrains Mono',monospace" font-size="10.5" fill="#9FE7DF">Coral</text><rect x="706" y="104" width="65" height="22" rx="11" fill="none" stroke="#4FD1C5" stroke-opacity="0.5"/><text x="738" y="119" text-anchor="middle" font-family="'JetBrains Mono',monospace" font-size="10.5" fill="#9FE7DF">Datadog</text><rect x="778" y="104" width="78" height="22" rx="11" fill="none" stroke="#4FD1C5" stroke-opacity="0.5"/><text x="818" y="119" text-anchor="middle" font-family="'JetBrains Mono',monospace" font-size="10.5" fill="#9FE7DF">PagerDuty</text>
  </g>
  <g>
    <rect x="12" y="184" width="584" height="150" rx="16" fill="#0C1B21" stroke="#4FD1C5" stroke-opacity="0.22"/>
    <rect x="12" y="184" width="4" height="150" rx="2" fill="#4FD1C5"><animate attributeName="opacity" values="0.55;1;0.55" dur="2.6s" begin="0.8s" repeatCount="indefinite"/></rect>
    <circle cx="46" cy="218" r="5" fill="#7BF5E8"><animate attributeName="opacity" values="1;0.3;1" dur="1.8s" begin="0.8s" repeatCount="indefinite"/></circle>
    <text x="60" y="223" font-family="'Segoe UI',system-ui,sans-serif" font-size="21" font-weight="800" fill="#4FD1C5">DhruvYantra</text>
    <text x="40" y="256" font-family="'Segoe UI',system-ui,sans-serif" font-size="13.5" fill="#A9C4C0">An adaptive JEE/NEET study buddy with AI progress tracking.</text>
    <rect x="40" y="276" width="52" height="22" rx="11" fill="none" stroke="#4FD1C5" stroke-opacity="0.5"/><text x="66" y="291" text-anchor="middle" font-family="'JetBrains Mono',monospace" font-size="10.5" fill="#9FE7DF">Coral</text><rect x="100" y="276" width="85" height="22" rx="11" fill="none" stroke="#4FD1C5" stroke-opacity="0.5"/><text x="142" y="291" text-anchor="middle" font-family="'JetBrains Mono',monospace" font-size="10.5" fill="#9FE7DF">OpenRouter</text><rect x="192" y="276" width="58" height="22" rx="11" fill="none" stroke="#4FD1C5" stroke-opacity="0.5"/><text x="222" y="291" text-anchor="middle" font-family="'JetBrains Mono',monospace" font-size="10.5" fill="#9FE7DF">Notion</text>
  </g>
  <g>
    <rect x="618" y="184" width="584" height="150" rx="16" fill="#0C1B21" stroke="#4FD1C5" stroke-opacity="0.22"/>
    <rect x="618" y="184" width="4" height="150" rx="2" fill="#4FD1C5"><animate attributeName="opacity" values="0.55;1;0.55" dur="2.6s" begin="1.2s" repeatCount="indefinite"/></rect>
    <circle cx="652" cy="218" r="5" fill="#7BF5E8"><animate attributeName="opacity" values="1;0.3;1" dur="1.8s" begin="1.2s" repeatCount="indefinite"/></circle>
    <text x="666" y="223" font-family="'Segoe UI',system-ui,sans-serif" font-size="21" font-weight="800" fill="#4FD1C5">Trinetra</text>
    <text x="646" y="256" font-family="'Segoe UI',system-ui,sans-serif" font-size="13.5" fill="#A9C4C0">AI distress alerts with 60s escalation. Kestra Challenge winner.</text>
    <rect x="646" y="276" width="58" height="22" rx="11" fill="none" stroke="#4FD1C5" stroke-opacity="0.5"/><text x="675" y="291" text-anchor="middle" font-family="'JetBrains Mono',monospace" font-size="10.5" fill="#9FE7DF">Kestra</text><rect x="712" y="276" width="31" height="22" rx="11" fill="none" stroke="#4FD1C5" stroke-opacity="0.5"/><text x="728" y="291" text-anchor="middle" font-family="'JetBrains Mono',monospace" font-size="10.5" fill="#9FE7DF">AI</text><rect x="752" y="276" width="98" height="22" rx="11" fill="none" stroke="#4FD1C5" stroke-opacity="0.5"/><text x="801" y="291" text-anchor="middle" font-family="'JetBrains Mono',monospace" font-size="10.5" fill="#9FE7DF">Event-Driven</text>
  </g>
</svg>